<svg width="557.25" height="105.001" viewBox="0 0 557.25 105.001" xmlns="http://www.w3.org/2000/svg"><g id="svgGroup" stroke-linecap="round" fill-rule="evenodd" font-size="9pt" stroke="#000000" stroke-width="10" fill="#000000" style="stroke:#000000;stroke-width:10;fill:#000000"><path d="M 432.3 105.001 L 364.5 105.001 L 364.5 0.001 L 432.3 0.001 L 432.3 14.551 L 382.5 14.551 L 382.5 44.701 L 427.8 44.701 L 427.8 58.951 L 382.5 58.951 L 382.5 90.451 L 432.3 90.451 L 432.3 105.001 Z M 90.9 105.001 L 72.15 105.001 L 110.55 0.001 L 130.65 0.001 L 169.05 105.001 L 150 105.001 L 120.45 21.001 L 90.9 105.001 Z M 318.75 105.001 L 300.9 105.001 L 300.9 14.551 L 270 14.551 L 270 0.001 L 349.65 0.001 L 349.65 14.551 L 318.75 14.551 L 318.75 105.001 Z M 493.5 105.001 L 475.65 105.001 L 475.65 14.551 L 444.75 14.551 L 444.75 0.001 L 524.4 0.001 L 524.4 14.551 L 493.5 14.551 L 493.5 105.001 Z M 18 105.001 L 0 105.001 L 0 0.001 L 37.8 0.001 A 61.203 61.203 0 0 1 46.638 0.602 Q 53.494 1.604 58.65 4.276 Q 66.9 8.551 70.95 15.751 Q 75 22.951 75 32.251 A 33.628 33.628 0 0 1 72.224 45.917 A 32.69 32.69 0 0 1 71.1 48.226 A 27.281 27.281 0 0 1 62.635 57.655 A 35.062 35.062 0 0 1 58.95 59.926 Q 50.7 64.351 37.8 64.351 L 18 64.351 L 18 105.001 Z M 201.45 105.001 L 183.45 105.001 L 183.45 0.001 L 221.1 0.001 A 59.834 59.834 0 0 1 229.836 0.602 Q 236.616 1.604 241.725 4.276 A 32.029 32.029 0 0 1 248.838 9.252 A 26.374 26.374 0 0 1 253.875 15.676 A 31.54 31.54 0 0 1 257.71 28.492 A 38.531 38.531 0 0 1 257.85 31.801 Q 257.85 40.201 253.95 47.401 Q 250.05 54.601 241.8 58.951 A 34.378 34.378 0 0 1 233.691 61.924 Q 229.804 62.849 225.254 63.152 A 69.233 69.233 0 0 1 220.65 63.301 L 201.45 63.301 L 201.45 105.001 Z M 557.25 105.001 L 539.25 105.001 L 539.25 0.001 L 557.25 0.001 L 557.25 105.001 Z M 150.6 80.251 L 89.25 80.251 L 94.05 66.001 L 145.8 66.001 L 150.6 80.251 Z M 258.75 105.001 L 238.2 105.001 L 216.15 58.651 L 235.65 58.651 L 258.75 105.001 Z M 18 14.701 L 18 49.651 L 36.75 49.651 A 37.854 37.854 0 0 0 42.196 49.287 Q 48.631 48.349 51.989 44.987 A 11.6 11.6 0 0 0 52.05 44.926 Q 56.7 40.201 56.7 32.251 A 23.597 23.597 0 0 0 56.151 27.004 Q 55.274 23.157 52.997 20.394 A 14.616 14.616 0 0 0 52.05 19.351 A 13.631 13.631 0 0 0 47.282 16.34 Q 43.073 14.701 36.75 14.701 L 18 14.701 Z M 201.45 15.001 L 201.45 49.951 L 219.9 49.951 Q 226.231 49.951 230.448 48.016 A 13.857 13.857 0 0 0 234.675 45.076 A 16.465 16.465 0 0 0 239.086 36.145 A 23.2 23.2 0 0 0 239.4 32.251 A 21.223 21.223 0 0 0 238.719 26.729 A 15.558 15.558 0 0 0 234.75 19.726 A 13.957 13.957 0 0 0 229.619 16.496 Q 225.638 15.001 219.9 15.001 L 201.45 15.001 Z"/></g></svg>