<svg width="757.2" height="108.601" viewBox="0 0 757.2 108.601" xmlns="http://www.w3.org/2000/svg"><g id="svgGroup" stroke-linecap="round" fill-rule="evenodd" font-size="9pt" stroke="#000000" stroke-width="10" fill="#000000" style="stroke:#000000;stroke-width:10;fill:#000000"><path d="M 379.35 106.801 L 361.35 106.801 L 361.35 1.801 L 379.35 1.801 L 429.9 77.701 L 429.9 1.801 L 447.9 1.801 L 447.9 106.801 L 429.9 106.801 L 379.35 31.051 L 379.35 106.801 Z M 342.45 106.801 L 274.65 106.801 L 274.65 1.801 L 342.45 1.801 L 342.45 16.351 L 292.65 16.351 L 292.65 46.501 L 337.95 46.501 L 337.95 60.751 L 292.65 60.751 L 292.65 92.251 L 342.45 92.251 L 342.45 106.801 Z M 0 75.151 L 19.05 75.151 A 19.024 19.024 0 0 0 19.911 80.953 A 16.862 16.862 0 0 0 21.525 84.526 Q 24 88.651 28.425 91.051 A 19.09 19.09 0 0 0 33.826 92.958 Q 36.141 93.42 38.795 93.449 A 32.662 32.662 0 0 0 39.15 93.451 Q 44.36 93.451 48.244 91.845 A 17.604 17.604 0 0 0 48.525 91.726 A 15.18 15.18 0 0 0 52.229 89.479 A 12.88 12.88 0 0 0 54.675 86.776 A 12.722 12.722 0 0 0 56.76 80.921 A 16.139 16.139 0 0 0 56.85 79.201 A 17.339 17.339 0 0 0 56.495 75.597 Q 55.976 73.154 54.699 71.274 A 10.93 10.93 0 0 0 54.525 71.026 A 17.676 17.676 0 0 0 50.737 67.218 A 22.744 22.744 0 0 0 48.15 65.551 A 47.72 47.72 0 0 0 43.223 63.189 A 62.238 62.238 0 0 0 38.85 61.576 Q 33.6 59.851 27.75 57.901 Q 18.875 54.906 13.125 50.731 A 31.178 31.178 0 0 1 9 47.176 Q 2.7 40.651 2.7 29.701 A 32.218 32.218 0 0 1 3.652 21.698 A 25.403 25.403 0 0 1 7.05 13.951 A 28.081 28.081 0 0 1 16.843 4.928 A 34.624 34.624 0 0 1 19.275 3.676 A 38.502 38.502 0 0 1 29.792 0.561 A 50.956 50.956 0 0 1 37.5 0.001 A 49.714 49.714 0 0 1 46.767 0.825 A 37.215 37.215 0 0 1 55.875 3.751 A 32.194 32.194 0 0 1 64.611 9.756 A 29.345 29.345 0 0 1 68.325 14.176 A 26.727 26.727 0 0 1 72.637 25.261 A 34.811 34.811 0 0 1 73.05 30.151 L 53.85 30.151 Q 53.7 26.251 51.75 22.876 A 14.989 14.989 0 0 0 47.235 18.037 A 18.22 18.22 0 0 0 46.125 17.326 A 15.156 15.156 0 0 0 41.278 15.524 A 21.205 21.205 0 0 0 37.2 15.151 A 23.27 23.27 0 0 0 36.425 15.138 Q 34.22 15.138 32.259 15.568 A 15.867 15.867 0 0 0 29.175 16.576 A 13.816 13.816 0 0 0 25.477 18.959 A 12.385 12.385 0 0 0 23.625 21.076 A 11.078 11.078 0 0 0 21.909 25.17 A 15.572 15.572 0 0 0 21.6 28.351 A 15.542 15.542 0 0 0 21.886 31.414 Q 22.277 33.357 23.2 34.895 A 9.595 9.595 0 0 0 23.475 35.326 A 12.897 12.897 0 0 0 26.31 38.304 A 17.602 17.602 0 0 0 28.95 39.976 A 51.922 51.922 0 0 0 32.784 41.767 Q 34.913 42.663 37.35 43.501 Q 42.15 45.151 47.85 47.101 A 79.076 79.076 0 0 1 57.688 51.035 A 67.307 67.307 0 0 1 62.025 53.326 A 29.457 29.457 0 0 1 70.518 60.564 A 28.146 28.146 0 0 1 72.15 62.851 A 22.173 22.173 0 0 1 74.933 69.445 Q 75.658 72.32 75.84 75.695 A 42.992 42.992 0 0 1 75.9 78.001 Q 75.9 86.101 71.7 93.076 A 29.246 29.246 0 0 1 62.983 102.173 A 36.803 36.803 0 0 1 59.4 104.326 A 34.432 34.432 0 0 1 50.916 107.394 Q 46.933 108.299 42.306 108.525 A 64.635 64.635 0 0 1 39.15 108.601 Q 27.75 108.601 18.9 104.551 A 33.988 33.988 0 0 1 9.766 98.525 A 30.537 30.537 0 0 1 5.1 93.001 A 30.56 30.56 0 0 1 0.464 80.747 A 39.753 39.753 0 0 1 0 75.151 Z M 105.3 106.801 L 86.55 106.801 L 124.95 1.801 L 145.05 1.801 L 183.45 106.801 L 164.4 106.801 L 134.85 22.801 L 105.3 106.801 Z M 679.05 106.801 L 660.3 106.801 L 698.7 1.801 L 718.8 1.801 L 757.2 106.801 L 738.15 106.801 L 708.6 22.801 L 679.05 106.801 Z M 228.9 106.801 L 211.05 106.801 L 211.05 16.351 L 180.15 16.351 L 180.15 1.801 L 259.8 1.801 L 259.8 16.351 L 228.9 16.351 L 228.9 106.801 Z M 502.95 106.801 L 469.05 106.801 L 469.05 1.801 L 502.95 1.801 Q 517.631 1.801 528.209 5.952 A 44.91 44.91 0 0 1 533.175 8.251 Q 545.1 14.701 550.875 26.476 A 54.727 54.727 0 0 1 555.525 41.011 A 76.304 76.304 0 0 1 556.65 54.451 A 73.945 73.945 0 0 1 555.464 68.013 A 54.632 54.632 0 0 1 550.875 82.126 Q 545.1 93.901 533.175 100.351 A 49.717 49.717 0 0 1 520.595 104.98 Q 514.776 106.317 507.988 106.672 A 96.467 96.467 0 0 1 502.95 106.801 Z M 592.2 106.801 L 574.2 106.801 L 574.2 1.801 L 611.85 1.801 A 59.834 59.834 0 0 1 620.586 2.402 Q 627.366 3.404 632.475 6.076 A 32.029 32.029 0 0 1 639.588 11.052 A 26.374 26.374 0 0 1 644.625 17.476 A 31.54 31.54 0 0 1 648.46 30.292 A 38.531 38.531 0 0 1 648.6 33.601 Q 648.6 42.001 644.7 49.201 Q 640.8 56.401 632.55 60.751 A 34.378 34.378 0 0 1 624.441 63.724 Q 620.554 64.649 616.004 64.952 A 69.233 69.233 0 0 1 611.4 65.101 L 592.2 65.101 L 592.2 106.801 Z M 487.05 16.951 L 487.05 91.501 L 502.05 91.501 A 68.874 68.874 0 0 0 510.017 91.068 Q 514.089 90.593 517.479 89.595 A 29.311 29.311 0 0 0 523.575 87.076 Q 531.45 82.651 534.825 74.326 Q 537.932 66.661 538.179 56.263 A 76.472 76.472 0 0 0 538.2 54.451 A 68.09 68.09 0 0 0 537.643 45.501 Q 536.829 39.369 534.825 34.426 Q 531.45 26.101 523.575 21.526 A 29.752 29.752 0 0 0 516.303 18.585 Q 512.875 17.666 508.793 17.263 A 68.879 68.879 0 0 0 502.05 16.951 L 487.05 16.951 Z M 165 82.051 L 103.65 82.051 L 108.45 67.801 L 160.2 67.801 L 165 82.051 Z M 738.75 82.051 L 677.4 82.051 L 682.2 67.801 L 733.95 67.801 L 738.75 82.051 Z M 649.5 106.801 L 628.95 106.801 L 606.9 60.451 L 626.4 60.451 L 649.5 106.801 Z M 592.2 16.801 L 592.2 51.751 L 610.65 51.751 Q 616.981 51.751 621.198 49.816 A 13.857 13.857 0 0 0 625.425 46.876 A 16.465 16.465 0 0 0 629.836 37.945 A 23.2 23.2 0 0 0 630.15 34.051 A 21.223 21.223 0 0 0 629.469 28.529 A 15.558 15.558 0 0 0 625.5 21.526 A 13.957 13.957 0 0 0 620.369 18.296 Q 616.388 16.801 610.65 16.801 L 592.2 16.801 Z"/></g></svg>