<svg width="232.202" height="144.802" viewBox="0 0 232.202 144.802" xmlns="http://www.w3.org/2000/svg"><g id="svgGroup" stroke-linecap="round" fill-rule="evenodd" font-size="9pt" stroke="#ffffff" stroke-width="1.5" fill="#ffffff" style="stroke:#ffffff;stroke-width:1.5;fill:#ffffff"><path d="M 0 100.001 L 32 100.001 A 21.676 21.676 0 0 0 32.996 105.926 A 18.486 18.486 0 0 0 35 110.201 Q 37.8 114.601 42.6 117.101 A 21.752 21.752 0 0 0 49.225 119.249 A 28.657 28.657 0 0 0 53.8 119.601 A 29.114 29.114 0 0 0 58.577 119.227 A 21.505 21.505 0 0 0 63.3 117.901 A 15.794 15.794 0 0 0 67.569 115.318 A 14.088 14.088 0 0 0 69.8 112.901 Q 72.2 109.601 72.2 104.601 A 16.118 16.118 0 0 0 71.564 99.985 A 13.349 13.349 0 0 0 69.4 95.701 A 21.93 21.93 0 0 0 65.245 91.563 A 28.805 28.805 0 0 0 61.8 89.301 Q 57 86.601 50.7 84.301 A 249.821 249.821 0 0 0 42.473 81.465 A 296.868 296.868 0 0 0 37.2 79.801 A 83.6 83.6 0 0 1 25.94 75.27 Q 17.297 70.987 11.7 65.201 A 30.908 30.908 0 0 1 3.626 49.41 A 44.735 44.735 0 0 1 2.8 40.601 A 43.497 43.497 0 0 1 4.094 29.76 A 34.183 34.183 0 0 1 9.1 18.701 A 39.146 39.146 0 0 1 23.723 6.068 A 47.594 47.594 0 0 1 26.4 4.801 A 56.969 56.969 0 0 1 41.725 0.621 A 73.096 73.096 0 0 1 51.4 0.001 A 71.836 71.836 0 0 1 64.131 1.077 A 53.763 53.763 0 0 1 76.7 4.901 A 42.185 42.185 0 0 1 90.987 15.178 A 40.958 40.958 0 0 1 94.1 19.101 A 38.035 38.035 0 0 1 100.477 35.393 A 48.477 48.477 0 0 1 101 41.201 L 68.8 41.201 Q 68.6 36.801 66.3 33.201 Q 64 29.601 60.1 27.401 A 16.928 16.928 0 0 0 54.16 25.421 A 21.959 21.959 0 0 0 51 25.201 Q 46.4 25.001 42.6 26.501 A 13.692 13.692 0 0 0 38.563 28.923 A 12.507 12.507 0 0 0 36.6 31.101 A 11.663 11.663 0 0 0 34.69 35.657 A 16.249 16.249 0 0 0 34.4 38.801 A 14.206 14.206 0 0 0 35.068 43.225 A 12.433 12.433 0 0 0 36.7 46.501 A 17.38 17.38 0 0 0 40.467 50.381 A 22.486 22.486 0 0 0 43.1 52.101 Q 47.136 54.365 52.528 56.338 A 89.701 89.701 0 0 0 52.7 56.401 Q 58.2 58.401 64.8 60.401 A 126.167 126.167 0 0 1 79.159 66.247 A 109.347 109.347 0 0 1 84.3 68.901 A 42.162 42.162 0 0 1 97.226 79.714 A 40.779 40.779 0 0 1 98.7 81.701 Q 103.458 88.535 104.1 99.186 A 56.781 56.781 0 0 1 104.2 102.601 Q 104.2 114.001 98.3 123.601 A 40.971 40.971 0 0 1 85.595 136.488 A 50.831 50.831 0 0 1 81.3 139.001 A 48.018 48.018 0 0 1 69.09 143.305 Q 63.542 144.497 57.127 144.739 A 88.232 88.232 0 0 1 53.8 144.801 A 76.072 76.072 0 0 1 38.052 143.232 A 62.311 62.311 0 0 1 26.7 139.701 A 45.311 45.311 0 0 1 13.637 131.475 A 41.386 41.386 0 0 1 7.6 124.601 A 40.94 40.94 0 0 1 1.258 109.9 A 55.723 55.723 0 0 1 0 100.001 Z M 156.8 142.401 L 126.8 142.401 L 126.8 2.401 L 181.2 2.401 Q 194.957 2.401 204.939 6.111 A 43.933 43.933 0 0 1 209.7 8.201 A 42.443 42.443 0 0 1 220.226 15.703 A 36.821 36.821 0 0 1 226.6 24.101 A 44.946 44.946 0 0 1 232.063 42.924 A 54.219 54.219 0 0 1 232.2 46.801 Q 232.2 58.601 226.8 68.601 A 38.772 38.772 0 0 1 214.977 81.796 A 49.241 49.241 0 0 1 210.2 84.801 Q 199 91.001 181.2 91.001 L 156.8 91.001 L 156.8 142.401 Z M 156.8 26.801 L 156.8 67.001 L 179.2 67.001 Q 186.229 67.001 190.952 65.049 A 15.563 15.563 0 0 0 196.3 61.501 Q 201.6 56.001 201.6 46.801 A 26.88 26.88 0 0 0 200.974 40.823 Q 199.974 36.439 197.38 33.29 A 16.664 16.664 0 0 0 196.3 32.101 A 15.766 15.766 0 0 0 190.671 28.572 Q 188.201 27.631 185.118 27.19 A 41.897 41.897 0 0 0 179.2 26.801 L 156.8 26.801 Z" vector-effect="non-scaling-stroke"/></g></svg>